<svg width="200" height="200" viewBox="0 0 200 200" fill="none" xmlns="http://www.w3.org/2000/svg">
<rect width="100" height="100" transform="matrix(1 0 0 -1 100 186)" fill="#79C8C7"/>
<path fill-rule="evenodd" clip-rule="evenodd" d="M100 200C44.7715 200 0 155.228 0 100C0 44.7715 44.7715 0 100 0C155.228 0 200 44.7715 200 100C200 155.228 155.228 200 100 200ZM100 133C81.7746 133 67 118.225 67 100C67 81.7746 81.7746 67 100 67C118.225 67 133 81.7746 133 100C133 118.225 118.225 133 100 133Z" fill="#012F34"/>
<path fill-rule="evenodd" clip-rule="evenodd" d="M200 142H196V146H200V142ZM189 142H193V146H189V142ZM189 150H193V154H189V150ZM193 158H189V162H193V158ZM189 166H193V170H189V166ZM193 174H189V178H193V174ZM189 182H193V186H189V182ZM186 142H182V146H186V142ZM186 150H182V154H186V150ZM182 158H186V162H182V158ZM186 166H182V170H186V166ZM182 174H186V178H182V174ZM186 182H182V186H186V182ZM200 150H196V154H200V150ZM179 142H175V146H179V142ZM179 150H175V154H179V150ZM175 158H179V162H175V158ZM179 166H175V170H179V166ZM175 174H179V178H175V174ZM179 182H175V186H179V182ZM200 158H196V162H200V158ZM172 142H168V146H172V142ZM172 150H168V154H172V150ZM168 158H172V162H168V158ZM172 166H168V170H172V166ZM168 174H172V178H168V174ZM172 182H168V186H172V182ZM200 166H196V170H200V166ZM165 142H161V146H165V142ZM165 150H161V154H165V150ZM161 158H165V162H161V158ZM165 166H161V170H165V166ZM161 174H165V178H161V174ZM165 182H161V186H165V182ZM200 174H196V178H200V174ZM158 142H154V146H158V142ZM158 150H154V154H158V150ZM154 158H158V162H154V158ZM158 166H154V170H158V166ZM154 174H158V178H154V174ZM158 182H154V186H158V182ZM200 182H196V186H200V182ZM151 142H147V146H151V142ZM151 150H147V154H151V150ZM147 158H151V162H147V158ZM151 166H147V170H151V166ZM147 174H151V178H147V174ZM151 182H147V186H151V182Z" fill="#F67E7E"/>
</svg>
